if (_typeface_js && _typeface_js.loadFace) _typeface_js.loadFace({"glyphs":{"S":{"x_min":72.46875,"x_max":632,"ha":697,"o":"m 632 252 q 618 354 632 311 q 574 432 604 397 q 495 496 544 466 q 377 555 446 525 q 296 596 328 576 q 244 635 264 615 q 217 678 225 655 q 209 732 209 701 q 247 820 209 785 q 363 856 286 856 q 471 835 420 856 q 560 785 521 815 l 581 915 q 488 954 540 939 q 367 970 437 970 q 251 951 303 970 q 160 901 199 933 q 102 823 122 868 q 82 722 82 778 q 96 624 82 665 q 141 551 110 583 q 220 490 171 518 q 337 432 268 462 q 417 391 385 411 q 469 350 449 372 q 496 302 488 328 q 505 243 505 276 q 458 139 505 176 q 337 103 412 103 q 203 128 267 103 q 91 184 139 153 l 72 51 q 190 6 124 23 q 335 -11 257 -11 q 456 7 401 -11 q 549 61 510 26 q 610 144 588 95 q 632 252 632 193 "},"/":{"x_min":-21.78125,"x_max":563.5,"ha":551,"o":"m 563 747 l 464 769 l -21 -80 l 78 -102 l 563 747 "},"K":{"x_min":113,"x_max":816.75,"ha":829,"o":"m 816 20 l 379 513 l 792 958 l 638 958 l 241 527 l 241 958 l 113 958 l 113 0 l 241 0 l 241 485 l 683 -9 l 816 20 "},"7":{"x_min":35.6875,"x_max":606,"ha":667,"o":"m 606 606 l 606 704 l 35 704 l 53 591 l 473 591 l 132 -231 l 248 -258 l 606 606 "},"d":{"x_min":98,"x_max":686,"ha":746,"o":"m 686 352 q 661 492 686 429 q 588 604 637 556 q 469 677 540 651 q 306 704 398 704 l 98 704 l 98 0 l 306 0 q 468 27 397 0 q 588 101 540 54 q 660 213 635 148 q 686 352 686 277 m 560 351 q 494 173 560 236 q 312 111 428 111 l 221 111 l 221 593 l 314 593 q 493 529 426 593 q 560 351 560 466 "},",":{"x_min":36.75,"x_max":245,"ha":309,"o":"m 245 165 l 104 165 l 36 -168 l 103 -184 l 245 165 "},"Y":{"x_min":33.890625,"x_max":835.640625,"ha":866,"o":"m 835 958 l 694 958 l 431 499 l 161 967 l 33 939 l 366 380 l 366 0 l 494 0 l 494 380 l 835 958 "},"E":{"x_min":113,"x_max":633,"ha":683,"o":"m 633 0 l 633 119 l 241 119 l 241 442 l 554 442 l 535 561 l 241 561 l 241 839 l 619 839 l 619 958 l 113 958 l 113 0 l 633 0 "},"y":{"x_min":20.28125,"x_max":647.890625,"ha":667,"o":"m 647 704 l 513 704 l 332 383 l 145 716 l 20 688 l 268 272 l 268 0 l 392 0 l 392 273 l 647 704 "},"\"":{"x_min":85.75,"x_max":470.9375,"ha":557,"o":"m 470 844 l 332 844 l 366 571 l 436 555 l 470 844 m 223 844 l 85 844 l 118 571 l 190 555 l 223 844 "},"‹":{"x_min":47.640625,"x_max":378.390625,"ha":440,"o":"m 378 662 l 264 662 l 47 331 l 268 -7 l 370 14 l 179 331 l 378 662 "},"„":{"x_min":86,"x_max":479.640625,"ha":557,"o":"m 479 165 l 334 165 l 334 -107 l 399 -123 l 479 165 m 233 165 l 86 165 l 86 -107 l 152 -123 l 233 165 "},"g":{"x_min":60,"x_max":652,"ha":719,"o":"m 652 56 l 652 390 l 368 390 l 386 280 l 536 280 l 536 120 q 479 97 508 105 q 409 89 450 89 q 242 161 298 89 q 187 351 187 233 q 241 541 187 469 q 402 614 295 614 q 511 594 464 614 q 598 544 559 575 l 616 659 q 522 702 574 687 q 401 718 470 718 q 257 691 321 718 q 151 616 194 665 q 83 499 107 567 q 60 349 60 431 q 82 201 60 267 q 149 86 104 134 q 257 12 193 38 q 404 -14 321 -14 q 538 5 475 -14 q 652 56 601 24 "},"–":{"x_min":73,"x_max":544,"ha":618,"o":"m 544 336 l 544 453 l 73 453 l 73 336 l 544 336 "},"ƒ":{"x_min":65.015625,"x_max":477,"ha":533,"o":"m 175 397 l 81 397 l 65 293 l 158 293 l 73 -258 l 197 -238 l 280 293 l 423 293 l 423 397 l 296 397 l 312 500 q 345 582 322 558 q 415 607 369 607 q 448 607 430 607 q 477 604 466 607 l 477 715 q 451 717 466 717 q 415 717 436 717 q 262 671 313 717 q 194 522 210 626 l 175 397 "},"e":{"x_min":98,"x_max":536.78125,"ha":598,"o":"m 536 -1 l 536 109 l 221 109 l 221 311 l 483 311 l 466 421 l 221 421 l 221 594 l 527 594 l 527 704 l 98 704 l 98 -1 l 536 -1 "},"J":{"x_min":29.4375,"x_max":398,"ha":503,"o":"m 398 235 l 398 958 l 269 958 l 269 247 q 234 137 269 170 q 134 104 199 104 q 76 106 100 104 q 29 116 52 109 l 48 -1 q 87 -7 66 -4 q 132 -10 109 -10 q 325 49 252 -10 q 398 235 398 108 "},"|":{"x_min":127,"x_max":236,"ha":363,"o":"m 236 -240 l 236 1002 l 127 984 l 127 -258 l 236 -240 "},"^":{"x_min":115.6875,"x_max":494.078125,"ha":618,"o":"m 494 769 l 366 956 l 251 956 l 115 760 l 191 760 l 307 858 l 427 755 l 494 769 "},"q":{"x_min":60,"x_max":723,"ha":786,"o":"m 723 356 q 696 508 723 441 q 624 622 669 576 q 518 693 578 669 q 392 718 458 718 q 265 692 325 718 q 160 620 205 667 q 87 503 114 572 q 60 349 60 435 q 126 118 60 205 q 314 -10 193 32 l 698 -150 l 714 -43 l 520 23 q 723 356 723 123 m 597 349 q 584 246 597 294 q 543 162 570 198 q 479 107 517 127 q 392 87 441 87 q 306 107 344 87 q 241 164 268 128 q 199 248 213 200 q 185 349 185 295 q 198 452 185 405 q 239 535 212 499 q 304 590 265 570 q 392 611 343 611 q 476 590 438 611 q 541 533 514 569 q 583 451 569 498 q 597 349 597 403 "},"b":{"x_min":98,"x_max":583,"ha":646,"o":"m 583 206 q 546 315 583 276 q 452 372 510 354 q 523 427 495 391 q 551 524 551 463 q 494 654 551 604 q 321 704 438 704 l 98 704 l 98 0 l 322 0 q 511 49 439 0 q 583 206 583 99 m 437 513 q 311 418 437 418 l 215 418 l 215 600 l 315 600 q 408 577 379 600 q 437 513 437 555 m 467 207 q 428 126 467 150 q 323 103 390 103 l 215 103 l 215 318 l 325 318 q 467 207 467 318 "},"D":{"x_min":113,"x_max":879,"ha":957,"o":"m 879 480 q 847 673 879 585 q 754 824 816 760 q 600 922 692 887 q 385 958 507 958 l 113 958 l 113 0 l 379 0 q 593 34 500 0 q 750 133 687 69 q 846 285 813 197 q 879 480 879 373 m 747 479 q 722 319 747 387 q 651 206 698 251 q 536 140 604 162 q 385 118 469 118 l 241 118 l 241 840 l 389 840 q 535 817 469 840 q 648 749 601 794 q 721 636 695 703 q 747 479 747 569 "},"z":{"x_min":48,"x_max":591,"ha":651,"o":"m 586 0 l 571 103 l 193 103 l 591 615 l 591 704 l 77 704 l 94 600 l 445 600 l 48 89 l 48 0 l 586 0 "},"w":{"x_min":36.75,"x_max":1007.21875,"ha":1041,"o":"m 1007 704 l 888 704 l 748 170 l 592 704 l 460 704 l 303 170 l 161 715 l 36 687 l 239 -4 l 355 -4 l 521 551 l 683 -4 l 798 -4 l 1007 704 "},"$":{"x_min":48.5,"x_max":575,"ha":623,"o":"m 317 93 l 351 308 q 443 262 418 288 q 469 196 469 237 q 430 120 469 148 q 317 93 391 93 m 319 621 l 289 427 q 202 469 225 445 q 179 530 179 493 q 210 593 179 566 q 319 621 241 621 m 73 519 q 123 400 73 443 q 273 329 174 357 q 269 305 273 327 q 260 248 266 283 q 250 180 255 213 q 241 123 245 147 q 237 99 237 99 q 147 124 191 108 q 66 165 102 141 l 48 61 q 126 29 79 44 q 222 5 173 14 l 200 -134 l 281 -153 l 304 -1 l 305 -1 q 503 53 432 -1 q 575 208 575 108 q 525 329 575 284 q 366 407 475 375 l 398 614 q 465 595 433 607 q 526 568 497 583 l 542 672 q 414 710 482 700 l 430 812 l 349 830 l 331 717 l 328 717 q 223 702 270 717 q 143 662 176 687 q 91 599 109 636 q 73 519 73 562 "},"™":{"x_min":41.796875,"x_max":993,"ha":1087,"o":"m 993 479 l 993 958 l 880 958 l 741 599 l 601 958 l 485 958 l 485 479 l 546 479 l 574 812 l 707 478 l 771 478 l 917 812 l 917 479 l 993 479 m 421 883 l 409 958 l 41 958 l 41 883 l 189 883 l 189 479 l 271 479 l 271 883 l 421 883 "},"\\":{"x_min":-12.25,"x_max":573.03125,"ha":551,"o":"m -12 747 l 472 -102 l 573 -80 l 87 769 l -12 747 "},"’":{"x_min":70.78125,"x_max":250.4375,"ha":309,"o":"m 250 958 l 110 958 l 70 651 l 138 634 l 250 958 "},"~":{"x_min":68.0625,"x_max":487.28125,"ha":557,"o":"m 487 468 l 408 485 q 389 429 400 444 q 364 414 379 414 q 332 420 349 414 q 276 448 315 427 q 227 472 249 464 q 179 481 206 481 q 68 322 85 481 l 147 305 q 165 362 155 347 q 190 377 175 377 q 222 370 205 377 q 279 342 239 363 q 327 318 306 326 q 375 310 348 310 q 487 468 468 310 "},"-":{"x_min":73,"x_max":408,"ha":482,"o":"m 408 335 l 408 456 l 73 456 l 73 335 l 408 335 "},"Q":{"x_min":75,"x_max":941,"ha":1016,"o":"m 941 480 q 911 682 941 591 q 824 838 881 773 q 688 939 768 903 q 509 976 608 976 q 329 939 409 976 q 192 837 249 903 q 105 680 136 772 q 75 477 75 588 q 386 -5 75 112 l 894 -198 l 920 -82 l 650 14 q 769 77 716 36 q 861 177 823 118 q 919 312 898 236 q 941 480 941 389 m 810 479 q 788 322 810 393 q 729 201 767 251 q 633 122 690 150 q 507 95 577 95 q 382 122 438 95 q 287 201 326 150 q 228 322 249 251 q 207 479 207 393 q 228 635 207 565 q 287 754 249 705 q 382 830 326 804 q 507 857 438 857 q 633 830 577 857 q 728 754 688 804 q 788 635 767 705 q 810 479 810 565 "},"M":{"x_min":125,"x_max":1100,"ha":1225,"o":"m 1100 0 l 1100 958 l 906 958 l 613 172 l 321 958 l 125 958 l 125 0 l 237 0 l 237 762 l 562 -4 l 658 -4 l 984 762 l 984 0 l 1100 0 "},"C":{"x_min":75,"x_max":793.640625,"ha":879,"o":"m 793 75 l 774 198 q 652 130 717 157 q 510 103 586 103 q 383 129 439 103 q 287 204 326 155 q 228 323 249 252 q 207 479 207 393 q 227 635 207 565 q 287 754 247 705 q 382 830 326 804 q 510 857 438 857 q 647 830 586 857 q 759 763 707 804 l 778 897 q 660 955 724 934 q 511 976 596 976 q 332 939 412 976 q 194 837 251 903 q 106 680 137 771 q 75 477 75 588 q 105 275 75 366 q 192 119 136 184 q 329 18 249 54 q 509 -18 409 -18 q 665 8 590 -18 q 793 75 739 34 "},"[":{"x_min":84,"x_max":378.109375,"ha":422,"o":"m 378 -106 l 367 -18 l 193 -18 l 193 615 l 372 615 l 372 704 l 84 704 l 84 -106 l 378 -106 "},"L":{"x_min":113,"x_max":597.609375,"ha":637,"o":"m 597 0 l 579 119 l 241 119 l 241 957 l 113 957 l 113 0 l 597 0 "},"!":{"x_min":117,"x_max":253,"ha":370,"o":"m 241 957 l 129 957 l 129 284 l 241 302 l 241 957 m 253 0 l 253 165 l 117 165 l 117 0 l 253 0 "}," ":{"x_min":0,"x_max":0,"ha":299},"{":{"x_min":34.96875,"x_max":447.140625,"ha":489,"o":"m 447 -106 l 434 -18 l 342 -18 q 292 -6 307 -18 q 277 33 277 4 q 284 99 277 65 q 291 168 291 134 q 262 258 291 230 q 185 297 233 286 l 185 299 q 262 339 233 311 q 291 430 291 367 q 284 499 291 463 q 277 565 277 534 q 293 604 277 594 q 342 615 310 615 l 441 615 l 441 704 l 315 704 q 203 669 239 704 q 167 569 167 634 q 174 501 167 534 q 181 431 181 467 q 153 357 181 379 q 79 336 126 336 l 34 336 l 47 261 l 79 261 q 152 240 124 261 q 181 166 181 220 q 174 97 181 130 q 167 27 167 63 q 203 -71 167 -37 q 315 -106 239 -106 l 447 -106 "},"X":{"x_min":35.390625,"x_max":824.828125,"ha":866,"o":"m 430 398 l 694 -9 l 824 18 l 502 505 l 798 958 l 657 958 l 434 605 l 200 967 l 70 939 l 362 498 l 35 0 l 175 0 l 430 398 "},"P":{"x_min":113,"x_max":680,"ha":729,"o":"m 680 681 q 595 887 680 816 q 361 958 511 958 l 113 958 l 113 0 l 241 0 l 241 389 l 340 389 q 478 407 416 389 q 586 461 541 425 q 655 553 631 498 q 680 681 680 608 m 551 677 q 497 545 551 587 q 347 504 443 504 l 241 504 l 241 843 l 355 843 q 501 802 451 843 q 551 677 551 761 "},"%":{"x_min":49,"x_max":973,"ha":1021,"o":"m 427 520 q 412 602 427 566 q 371 665 397 639 q 312 705 346 691 q 236 719 277 719 q 162 705 197 719 q 102 665 127 691 q 63 602 77 639 q 49 520 49 566 q 63 437 49 474 q 102 375 77 400 q 162 337 127 350 q 236 324 197 324 q 312 337 277 324 q 371 375 346 350 q 412 437 397 400 q 427 520 427 474 m 775 692 l 688 716 l 244 14 l 333 -9 l 775 692 m 973 184 q 958 266 973 230 q 918 329 944 303 q 858 369 892 355 q 784 383 824 383 q 709 369 744 383 q 649 329 675 355 q 609 266 623 303 q 595 184 595 230 q 609 101 595 138 q 649 39 623 64 q 709 1 675 14 q 784 -12 744 -12 q 858 1 824 -12 q 918 39 892 14 q 958 101 944 64 q 973 184 973 138 m 329 521 q 308 437 329 472 q 238 402 288 402 q 168 436 190 402 q 146 520 146 471 q 166 604 146 568 q 236 641 186 641 q 306 605 284 641 q 329 521 329 570 m 876 185 q 855 101 876 136 q 785 66 835 66 q 714 100 736 66 q 693 184 693 135 q 713 269 693 234 q 783 305 733 305 q 853 269 831 305 q 876 185 876 234 "},"#":{"x_min":48,"x_max":734,"ha":783,"o":"m 271 168 l 442 168 l 411 0 l 508 0 l 539 168 l 710 168 l 694 255 l 557 255 l 592 447 l 734 447 l 734 536 l 608 536 l 637 687 l 544 709 l 512 536 l 340 536 l 370 704 l 275 704 l 242 536 l 72 536 l 87 447 l 226 447 l 190 255 l 48 255 l 48 168 l 174 168 l 146 16 l 237 -6 l 271 168 m 463 254 l 284 254 l 320 450 l 498 450 l 463 254 "},"_":{"x_min":-3,"x_max":620,"ha":617,"o":"m 620 -144 l 620 -47 l -3 -47 l -3 -144 l 620 -144 "},"+":{"x_min":73,"x_max":705,"ha":779,"o":"m 705 300 l 705 404 l 442 404 l 442 680 l 336 680 l 336 404 l 73 404 l 73 300 l 336 300 l 336 24 l 442 24 l 442 300 l 705 300 "},"":{"x_min":68,"x_max":877,"ha":945,"o":"m 877 -278 l 877 1001 l 739 1001 l 699 1111 l 245 1111 l 204 1001 l 68 1001 l 68 232 q 99 218 87 232 q 111 187 111 205 q 99 155 111 168 q 68 143 87 143 l 68 -278 l 349 -278 l 360 -259 l 582 -259 l 593 -278 l 877 -278 m 544 782 l 623 782 l 623 762 l 565 762 l 565 670 l 616 670 l 616 651 l 565 651 l 565 542 l 544 542 l 544 782 m 250 782 l 271 782 l 271 672 l 335 672 l 335 782 l 355 782 l 355 542 l 335 542 l 335 652 l 271 652 l 271 542 l 250 542 l 250 782 m 626 547 l 626 569 q 639 563 631 566 q 653 561 647 561 q 675 591 675 561 l 675 782 l 697 782 l 697 591 q 654 541 697 541 q 638 542 647 541 q 626 547 630 544 m 712 448 l 722 448 l 722 415 l 751 448 l 765 448 l 740 420 l 766 384 l 754 384 l 732 412 l 722 402 l 722 384 l 712 384 l 712 448 m 664 405 l 647 405 l 647 384 l 637 384 l 637 448 l 665 448 q 681 442 676 448 q 687 428 687 435 q 673 407 687 412 l 689 384 l 678 384 l 664 405 m 579 383 q 556 392 564 383 q 548 416 548 402 q 556 439 548 429 q 579 450 564 450 q 603 439 594 450 q 612 416 612 429 q 603 392 612 402 q 579 383 594 383 m 503 417 l 520 448 l 533 448 l 508 407 l 508 384 l 498 384 l 498 407 l 473 448 l 486 448 l 503 417 m 263 448 l 308 448 l 308 439 l 273 439 l 273 422 l 303 422 l 303 412 l 274 412 l 274 394 l 308 394 l 308 384 l 263 384 l 263 448 m 180 448 l 189 448 l 223 403 l 223 448 l 234 448 l 234 384 l 224 384 l 190 428 l 190 384 l 180 384 l 180 448 m 328 448 l 339 448 l 352 400 l 353 400 l 368 448 l 379 448 l 392 400 l 394 400 l 407 448 l 419 448 l 399 383 l 388 383 l 373 430 l 372 430 l 359 383 l 348 383 l 328 448 m 445 664 q 465 709 465 686 q 460 728 465 720 q 447 735 455 735 q 434 728 439 735 q 429 709 429 720 q 433 688 429 698 q 445 664 438 678 m 465 587 l 438 641 q 418 595 418 620 q 424 569 418 580 q 440 558 430 558 q 454 567 447 558 q 465 587 462 576 m 664 415 q 677 427 677 415 q 663 439 677 439 l 648 439 l 648 415 l 664 415 m 579 393 q 594 399 588 393 q 601 416 601 406 q 594 432 601 424 q 579 440 588 440 q 564 432 569 440 q 559 416 559 424 q 564 399 559 406 q 579 393 569 393 m 475 608 q 481 628 477 617 q 487 649 485 639 l 504 645 q 497 617 502 630 q 487 591 493 603 l 508 549 l 494 538 l 477 572 l 476 572 q 461 549 470 559 q 439 538 453 538 q 408 553 420 538 q 397 592 397 569 q 429 654 397 630 q 415 681 420 670 q 409 709 409 693 q 419 738 409 724 q 447 752 429 752 q 476 738 467 752 q 485 709 485 724 q 475 677 485 692 q 453 651 466 663 l 475 608 "},"‚":{"x_min":86,"x_max":233,"ha":309,"o":"m 233 165 l 86 165 l 86 -107 l 152 -123 l 233 165 "},")":{"x_min":21.75,"x_max":353,"ha":410,"o":"m 353 322 q 297 547 353 451 q 132 736 241 644 l 21 712 q 115 615 76 662 q 180 521 155 568 q 217 426 205 474 q 230 323 230 377 q 186 136 230 215 q 65 5 142 58 l 81 -99 q 282 79 212 -25 q 353 322 353 184 "},"'":{"x_min":85.75,"x_max":223.21875,"ha":309,"o":"m 223 844 l 85 844 l 118 571 l 190 555 l 223 844 "},"}":{"x_min":43.234375,"x_max":454.03125,"ha":489,"o":"m 454 261 l 441 336 l 409 336 q 336 357 364 336 q 308 431 308 379 q 315 501 308 467 q 322 569 322 535 q 285 669 322 634 q 175 704 249 704 l 43 704 l 54 615 l 145 615 q 196 604 180 615 q 212 566 212 594 q 205 499 212 534 q 198 430 198 463 q 226 339 198 367 q 304 299 255 311 l 304 297 q 226 258 255 286 q 198 168 198 230 q 205 99 198 134 q 212 31 212 63 q 196 -7 212 2 q 145 -18 180 -18 l 47 -18 l 47 -106 l 175 -106 q 285 -71 249 -106 q 322 27 322 -37 q 315 97 322 63 q 308 166 308 130 q 336 240 308 220 q 409 261 364 261 l 454 261 "},"‰":{"x_min":73,"x_max":1014,"ha":1088,"o":"m 1014 480 q 979 682 1014 591 q 883 838 945 773 q 735 939 821 903 q 544 976 649 976 q 352 939 439 976 q 204 837 266 903 q 107 680 142 771 q 73 477 73 588 q 107 275 73 366 q 203 119 141 184 q 351 18 265 54 q 542 -18 437 -18 q 733 18 646 -18 q 882 120 820 54 q 979 277 944 186 q 1014 480 1014 369 m 954 479 q 922 287 954 370 q 836 147 891 204 q 706 61 781 90 q 544 32 631 32 q 382 61 457 32 q 252 147 307 90 q 164 287 196 204 q 133 479 133 370 q 164 670 133 587 q 250 810 195 753 q 380 896 305 867 q 544 926 455 926 q 704 896 629 926 q 834 810 779 867 q 922 670 890 753 q 954 479 954 587 m 621 441 q 698 497 669 459 q 727 594 727 536 q 674 718 727 673 q 534 763 622 763 l 378 763 l 378 215 l 469 215 l 469 425 l 524 425 l 680 208 l 777 231 l 621 441 m 531 681 q 608 656 582 681 q 634 591 634 632 q 606 526 634 548 q 529 504 578 504 l 469 504 l 469 681 l 531 681 "},"a":{"x_min":28.578125,"x_max":706.421875,"ha":735,"o":"m 476 286 l 251 286 l 363 591 l 366 591 q 377 559 367 588 q 404 483 387 530 q 438 393 421 437 q 465 317 454 349 q 476 286 476 286 m 212 176 l 517 176 l 585 -12 l 706 15 l 436 712 l 300 712 l 28 0 l 148 0 l 212 176 "},"T":{"x_min":45,"x_max":780.609375,"ha":817,"o":"m 780 839 l 761 958 l 45 958 l 45 839 l 344 839 l 344 0 l 473 0 l 473 839 l 780 839 "},"—":{"x_min":73,"x_max":1162,"ha":1236,"o":"m 1162 337 l 1162 451 l 73 451 l 73 337 l 1162 337 "},"=":{"x_min":99,"x_max":705,"ha":803,"o":"m 705 441 l 705 552 l 99 552 l 99 441 l 705 441 m 705 151 l 705 262 l 99 262 l 99 151 l 705 151 "},"N":{"x_min":113,"x_max":844,"ha":957,"o":"m 844 0 l 844 958 l 726 958 l 726 240 l 226 958 l 113 958 l 113 0 l 231 0 l 231 745 l 747 0 l 844 0 "},"2":{"x_min":56,"x_max":605.625,"ha":666,"o":"m 605 0 l 590 108 l 212 108 l 409 251 q 490 314 455 284 q 547 373 525 344 q 581 435 570 403 q 592 508 592 467 q 525 658 592 601 q 343 715 458 715 q 197 691 262 715 q 73 631 132 667 l 92 523 q 216 586 157 563 q 337 609 274 609 q 434 579 401 609 q 468 496 468 549 q 438 414 468 452 q 356 335 409 377 l 56 102 l 56 0 l 605 0 "},"j":{"x_min":33.0625,"x_max":334,"ha":429,"o":"m 334 187 l 334 704 l 210 704 l 210 191 q 187 119 210 141 q 107 97 165 97 q 68 99 88 97 q 33 105 48 102 l 48 0 q 82 -4 58 -2 q 125 -7 106 -7 q 276 39 219 -7 q 334 187 334 86 "},"Z":{"x_min":65,"x_max":766.25,"ha":823,"o":"m 766 0 l 748 114 l 218 114 l 754 860 l 754 958 l 88 958 l 105 844 l 600 844 l 65 97 l 65 0 l 766 0 "},"u":{"x_min":94,"x_max":660,"ha":754,"o":"m 660 279 l 660 704 l 536 704 l 536 276 q 495 140 536 187 q 375 93 454 93 q 255 142 294 93 q 217 279 217 192 l 217 704 l 94 704 l 94 273 q 168 60 94 134 q 374 -14 243 -14 q 583 60 506 -14 q 660 279 660 135 "},"1":{"x_min":28.140625,"x_max":322,"ha":440,"o":"m 322 0 l 322 715 l 217 715 l 28 626 l 41 526 l 201 584 l 201 0 l 322 0 "},"›":{"x_min":61.25,"x_max":392,"ha":440,"o":"m 392 330 l 171 669 l 69 647 l 261 330 l 61 0 l 175 0 l 392 330 "},"k":{"x_min":98,"x_max":651.109375,"ha":665,"o":"m 651 18 l 343 373 l 633 704 l 493 704 l 221 387 l 221 704 l 98 704 l 98 0 l 221 0 l 221 341 l 524 -11 l 651 18 "},"<":{"x_min":78,"x_max":686,"ha":779,"o":"m 686 1 l 686 122 l 207 351 l 686 580 l 686 699 l 78 397 l 78 304 l 686 1 "},"t":{"x_min":33,"x_max":598.953125,"ha":633,"o":"m 598 593 l 582 704 l 33 704 l 33 593 l 249 593 l 249 0 l 373 0 l 373 593 l 598 593 "},"W":{"x_min":53.078125,"x_max":1336.609375,"ha":1384,"o":"m 1336 958 l 1205 958 l 997 205 l 758 958 l 630 958 l 390 205 l 178 967 l 53 939 l 330 0 l 436 0 l 691 776 l 945 0 l 1053 0 l 1336 958 "},"v":{"x_min":28.578125,"x_max":683.28125,"ha":712,"o":"m 683 704 l 559 704 l 357 143 l 152 716 l 28 688 l 295 -11 l 409 -11 l 683 704 "},">":{"x_min":93,"x_max":701,"ha":779,"o":"m 701 306 l 701 399 l 93 702 l 93 581 l 571 351 l 93 123 l 93 4 l 701 306 "},"s":{"x_min":48.859375,"x_max":539,"ha":593,"o":"m 539 203 q 526 276 539 245 q 488 330 514 306 q 423 375 462 355 q 330 414 385 395 q 217 464 250 442 q 185 525 185 485 q 216 584 185 560 q 299 609 247 609 q 392 595 347 609 q 485 556 438 581 l 503 671 q 413 701 464 689 q 303 713 363 713 q 210 698 253 713 q 138 656 168 683 q 89 593 107 629 q 72 510 72 556 q 85 439 72 468 q 126 385 99 409 q 194 342 153 362 q 289 303 235 323 q 352 279 326 291 q 394 255 378 267 q 418 226 411 242 q 426 188 426 210 q 388 118 426 144 q 291 93 351 93 q 176 111 238 93 q 66 155 115 129 l 48 42 q 163 4 101 19 q 285 -10 224 -10 q 389 5 342 -10 q 468 48 435 20 q 520 115 502 76 q 539 203 539 155 "},"B":{"x_min":113,"x_max":685,"ha":742,"o":"m 685 280 q 636 432 685 376 q 509 511 588 487 q 608 587 573 539 q 644 709 644 636 q 625 811 644 765 q 569 889 607 856 q 475 939 532 921 q 340 958 417 958 l 113 958 l 113 0 l 337 0 q 593 68 501 0 q 685 280 685 136 m 518 705 q 470 595 518 634 q 328 556 422 556 l 238 556 l 238 847 l 337 847 q 476 809 434 847 q 518 705 518 772 m 559 277 q 504 152 559 194 q 347 111 449 111 l 238 111 l 238 449 l 343 449 q 504 405 449 449 q 559 277 559 361 "},"…":{"x_min":99,"x_max":890,"ha":988,"o":"m 890 0 l 890 165 l 754 165 l 754 0 l 890 0 m 562 0 l 562 165 l 426 165 l 426 0 l 562 0 m 235 0 l 235 165 l 99 165 l 99 0 l 235 0 "},"?":{"x_min":59.453125,"x_max":630,"ha":705,"o":"m 630 730 q 609 832 630 787 q 552 909 589 877 q 464 958 515 941 q 350 976 413 976 q 194 948 266 976 q 59 873 122 920 l 77 745 q 199 826 134 794 q 344 858 263 858 q 457 823 413 858 q 502 724 502 788 q 457 617 502 658 q 316 537 413 577 l 269 513 l 269 284 l 357 302 l 369 439 q 478 495 431 467 q 560 556 526 523 q 612 631 594 589 q 630 730 630 673 m 386 0 l 386 165 l 250 165 l 250 0 l 386 0 "},"H":{"x_min":113,"x_max":844,"ha":957,"o":"m 844 0 l 844 958 l 716 958 l 716 561 l 241 561 l 241 958 l 113 958 l 113 0 l 241 0 l 241 442 l 716 442 l 716 0 l 844 0 "},"c":{"x_min":60,"x_max":602.140625,"ha":655,"o":"m 602 48 l 585 155 q 498 108 544 126 q 399 90 451 90 q 243 160 299 90 q 187 351 187 231 q 241 542 187 472 q 396 612 295 612 q 492 594 449 612 q 572 548 535 576 l 591 663 q 504 704 551 690 q 392 718 456 718 q 256 691 317 718 q 151 616 194 665 q 83 499 107 567 q 60 349 60 431 q 83 201 60 267 q 149 86 106 134 q 254 12 193 38 q 392 -14 316 -14 q 506 3 453 -14 q 602 48 559 20 "},"&":{"x_min":33,"x_max":695.703125,"ha":692,"o":"m 695 18 l 547 171 q 616 390 597 264 l 517 412 q 476 246 506 314 l 298 432 q 251 489 266 465 q 237 543 237 513 q 257 596 237 574 q 321 618 277 618 q 398 603 359 618 q 477 562 438 588 l 495 673 q 413 705 460 693 q 315 718 367 718 q 231 704 268 718 q 170 666 194 690 q 132 611 145 643 q 120 544 120 579 q 136 461 120 495 q 186 390 153 426 q 75 304 117 354 q 33 179 33 254 q 92 36 33 87 q 265 -15 151 -15 q 386 11 332 -15 q 483 83 439 37 l 575 -9 l 695 18 m 420 149 q 354 97 390 114 q 278 81 317 81 q 185 111 218 81 q 153 192 153 142 q 247 325 153 273 l 420 149 "},"I":{"x_min":121,"x_max":249,"ha":370,"o":"m 249 0 l 249 958 l 121 958 l 121 0 l 249 0 "},"•":{"x_min":106.171875,"x_max":466.859375,"ha":573,"o":"m 466 479 l 441 651 l 287 674 l 133 651 l 106 479 l 133 308 l 287 283 l 441 308 l 466 479 "},"G":{"x_min":75,"x_max":850,"ha":949,"o":"m 850 75 l 850 523 l 488 523 l 506 404 l 723 404 l 723 150 q 637 114 682 126 q 532 103 593 103 q 390 129 452 103 q 288 204 329 155 q 227 323 247 252 q 207 479 207 393 q 226 635 207 565 q 285 754 246 705 q 384 830 325 804 q 520 857 442 857 q 669 829 603 857 q 787 760 735 802 l 807 894 q 683 953 751 931 q 521 976 615 976 q 333 939 416 976 q 193 837 250 903 q 105 680 136 771 q 75 477 75 588 q 104 275 75 366 q 191 119 133 184 q 335 18 249 54 q 532 -18 420 -18 q 707 8 626 -18 q 850 75 788 34 "},"(":{"x_min":57,"x_max":386.890625,"ha":410,"o":"m 386 -72 q 293 25 332 -22 q 229 118 254 72 q 192 213 204 165 q 180 316 180 262 q 222 504 180 424 q 343 636 265 583 l 328 740 q 127 560 197 665 q 57 319 57 455 q 70 198 57 254 q 112 93 84 143 q 181 -3 140 43 q 276 -95 222 -50 l 386 -72 "},"`":{"x_min":167.421875,"x_max":431.46875,"ha":618,"o":"m 431 801 l 314 1010 l 167 977 l 349 801 l 431 801 "},"U":{"x_min":103,"x_max":834,"ha":937,"o":"m 834 369 l 834 958 l 706 958 l 706 374 q 646 172 706 244 q 466 101 586 101 q 288 177 345 101 q 231 378 231 253 l 231 958 l 103 958 l 103 362 q 127 204 103 274 q 198 84 152 134 q 313 8 245 34 q 466 -18 380 -18 q 620 8 552 -18 q 735 84 688 34 q 808 206 783 134 q 834 369 834 279 "},"◊":{"x_min":92.921875,"x_max":994,"ha":1088,"o":"m 994 479 l 994 958 l 881 958 l 742 599 l 602 958 l 486 958 l 486 479 l 547 479 l 575 812 l 708 478 l 772 478 l 918 812 l 918 479 l 994 479 m 227 472 q 338 508 297 472 q 380 608 380 545 q 373 659 380 637 q 350 699 366 681 q 310 730 335 716 q 250 762 286 745 q 190 798 207 781 q 173 842 173 814 q 191 879 173 864 q 243 894 209 894 q 297 883 271 894 q 347 856 323 873 l 361 935 q 246 965 313 965 q 137 929 178 965 q 97 835 97 894 q 103 785 97 806 q 126 748 110 765 q 166 717 141 731 q 226 687 190 703 q 286 650 268 667 q 304 602 304 633 q 282 558 304 574 q 229 543 261 543 q 164 555 196 543 q 102 587 132 567 l 92 506 q 227 472 150 472 "},"F":{"x_min":113,"x_max":601.6875,"ha":651,"o":"m 601 839 l 601 958 l 113 958 l 113 0 l 241 0 l 241 426 l 543 426 l 524 545 l 241 545 l 241 839 l 601 839 "},"r":{"x_min":98,"x_max":622.359375,"ha":650,"o":"m 622 21 l 427 288 q 532 360 492 311 q 572 487 572 408 q 501 647 572 591 q 311 704 431 704 l 98 704 l 98 0 l 221 0 l 221 273 l 295 273 l 495 -8 l 622 21 m 449 486 q 413 399 449 429 q 310 370 377 370 l 221 370 l 221 596 l 310 596 q 413 567 378 596 q 449 486 449 539 "},":":{"x_min":93,"x_max":229,"ha":322,"o":"m 229 497 l 229 662 l 93 662 l 93 497 l 229 497 m 229 0 l 229 165 l 93 165 l 93 0 l 229 0 "},"x":{"x_min":23.140625,"x_max":637,"ha":664,"o":"m 637 15 l 401 367 l 623 704 l 487 704 l 334 456 l 174 716 l 47 688 l 262 363 l 23 0 l 157 0 l 329 274 l 510 -12 l 637 15 "},"*":{"x_min":55.8125,"x_max":488.640625,"ha":544,"o":"m 488 790 l 475 830 l 313 801 l 294 965 l 249 965 l 230 801 l 69 830 l 55 790 l 202 717 l 125 569 l 159 545 l 272 666 l 383 545 l 419 569 l 340 717 l 488 790 "},"†":{"x_min":61,"x_max":618,"ha":679,"o":"m 393 848 l 393 958 l 287 958 l 287 848 l 315 661 l 363 661 l 393 848 m 618 554 l 618 660 l 578 660 l 395 629 l 395 583 l 578 554 l 618 554 m 286 583 l 286 629 l 100 660 l 61 660 l 61 554 l 100 554 l 286 583 m 389 23 l 389 387 l 363 553 l 315 553 l 290 387 l 290 23 l 318 -158 l 360 -158 l 389 23 "},"V":{"x_min":39.46875,"x_max":882,"ha":921,"o":"m 882 958 l 747 958 l 460 170 l 167 967 l 39 939 l 401 -4 l 515 -4 l 882 958 "},"h":{"x_min":98,"x_max":662,"ha":760,"o":"m 662 0 l 662 704 l 538 704 l 538 424 l 221 424 l 221 704 l 98 704 l 98 0 l 221 0 l 221 310 l 538 310 l 538 0 l 662 0 "},"0":{"x_min":59,"x_max":684,"ha":743,"o":"m 684 351 q 660 502 684 434 q 594 618 636 570 q 494 692 551 666 q 369 719 436 719 q 246 692 304 719 q 148 618 189 666 q 82 502 106 570 q 59 351 59 434 q 82 200 59 267 q 148 85 106 133 q 246 11 189 37 q 369 -14 304 -14 q 494 11 436 -14 q 594 85 551 37 q 660 200 636 133 q 684 351 684 267 m 561 351 q 548 249 561 297 q 512 166 536 201 q 451 109 487 130 q 369 89 415 89 q 289 109 324 89 q 230 166 255 130 q 194 250 206 202 q 182 351 182 298 q 194 454 182 405 q 230 537 206 502 q 288 594 254 573 q 369 615 323 615 q 450 594 415 615 q 510 537 486 573 q 548 453 535 501 q 561 351 561 405 "},".":{"x_min":87,"x_max":222,"ha":309,"o":"m 222 0 l 222 165 l 87 165 l 87 0 l 222 0 "},"”":{"x_min":70.78125,"x_max":498.171875,"ha":557,"o":"m 250 958 l 110 958 l 70 651 l 138 634 l 250 958 m 498 958 l 357 958 l 318 651 l 386 634 l 498 958 "},"@":{"x_min":69,"x_max":1066,"ha":1138,"o":"m 648 285 q 556 184 594 214 q 488 155 519 155 q 438 177 456 155 q 420 250 420 199 q 437 366 420 314 q 481 455 454 418 q 541 511 508 491 q 609 532 575 532 q 652 529 636 532 q 689 519 667 526 l 648 285 m 650 189 q 710 93 663 125 q 825 62 756 62 q 922 88 877 62 q 998 162 966 114 q 1048 276 1030 210 q 1066 422 1066 342 q 1034 608 1066 525 q 945 748 1003 690 q 806 839 887 807 q 626 871 725 871 q 406 822 507 871 q 229 689 304 773 q 111 494 154 605 q 69 255 69 382 q 100 64 69 147 q 190 -76 132 -19 q 330 -164 248 -134 q 515 -194 413 -194 q 688 -174 612 -194 q 824 -126 764 -154 l 816 -76 q 681 -126 753 -108 q 520 -145 609 -145 q 365 -121 436 -145 q 241 -48 293 -97 q 158 77 188 0 q 129 257 129 153 q 168 483 129 379 q 274 661 207 586 q 430 778 341 736 q 620 821 519 821 q 772 796 702 821 q 895 721 843 771 q 977 596 947 671 q 1007 421 1007 521 q 959 205 1007 281 q 838 130 911 130 q 773 152 797 130 q 750 218 750 175 q 753 258 750 236 q 758 294 756 281 l 806 584 q 716 611 761 601 q 622 621 670 621 q 509 593 565 621 q 409 514 453 565 q 338 390 365 462 q 312 231 312 318 q 324 156 312 188 q 356 103 336 124 q 403 72 377 82 q 456 62 429 62 q 550 91 506 62 q 650 189 594 120 "},"f":{"x_min":98,"x_max":516.359375,"ha":563,"o":"m 516 594 l 516 704 l 98 704 l 98 0 l 221 0 l 221 299 l 471 299 l 453 409 l 221 409 l 221 594 l 516 594 "},";":{"x_min":33.953125,"x_max":242.09375,"ha":321,"o":"m 238 497 l 238 662 l 102 662 l 102 497 l 238 497 m 242 165 l 102 165 l 33 -168 l 100 -184 l 242 165 "},"“":{"x_min":58.53125,"x_max":485.921875,"ha":557,"o":"m 238 952 l 170 969 l 58 646 l 198 646 l 238 952 m 485 952 l 417 969 l 306 646 l 446 646 l 485 952 "},"i":{"x_min":103,"x_max":227,"ha":330,"o":"m 227 0 l 227 704 l 103 704 l 103 0 l 227 0 "},"6":{"x_min":68,"x_max":687,"ha":746,"o":"m 201 536 q 314 740 228 657 q 560 869 401 824 l 542 979 q 348 901 436 951 q 199 778 261 851 q 102 608 137 705 q 68 387 68 511 q 91 213 68 288 q 155 88 114 138 q 253 11 195 37 q 378 -14 310 -14 q 499 11 443 -14 q 597 79 556 36 q 663 182 639 123 q 687 311 687 241 q 667 433 687 380 q 612 524 647 487 q 528 580 578 561 q 420 600 478 600 q 302 581 359 600 q 201 536 244 562 m 185 423 q 286 474 229 452 q 400 496 342 496 q 523 446 481 496 q 566 305 566 397 q 553 217 566 257 q 515 149 540 177 q 456 104 491 120 q 379 89 421 89 q 234 169 284 89 q 185 394 185 250 l 185 423 "},"A":{"x_min":39.46875,"x_max":896.96875,"ha":936,"o":"m 896 18 l 534 961 l 406 961 l 39 0 l 168 0 l 274 287 l 662 287 l 773 -9 l 896 18 m 619 402 l 318 402 l 468 806 l 619 402 "},"‘":{"x_min":58.53125,"x_max":238.1875,"ha":309,"o":"m 238 952 l 170 969 l 58 646 l 198 646 l 238 952 "},"n":{"x_min":98,"x_max":663,"ha":761,"o":"m 663 0 l 663 704 l 551 704 l 551 205 l 220 704 l 98 704 l 98 0 l 210 0 l 210 519 l 555 0 l 663 0 "},"O":{"x_min":75,"x_max":941,"ha":1016,"o":"m 941 480 q 911 682 941 591 q 824 838 881 773 q 688 939 768 903 q 509 976 608 976 q 329 939 409 976 q 192 837 249 903 q 105 680 136 771 q 75 477 75 588 q 104 275 75 366 q 191 119 134 184 q 327 18 247 54 q 506 -18 407 -18 q 686 18 606 -18 q 823 120 766 54 q 910 277 879 186 q 941 480 941 369 m 810 479 q 788 322 810 392 q 729 203 767 252 q 633 127 690 153 q 507 101 577 101 q 382 127 438 101 q 287 203 326 153 q 228 322 249 252 q 207 479 207 392 q 228 635 207 565 q 287 754 249 705 q 382 830 326 804 q 507 857 438 857 q 633 830 577 857 q 728 754 688 804 q 788 635 767 705 q 810 479 810 565 "},"3":{"x_min":33.8125,"x_max":592,"ha":655,"o":"m 592 52 q 577 138 592 101 q 536 198 562 174 q 476 236 510 222 q 404 257 442 250 q 468 293 438 271 q 523 344 499 315 q 561 411 547 373 q 576 493 576 448 q 560 581 576 540 q 512 652 544 622 q 432 700 480 683 q 317 718 383 718 q 165 690 235 718 q 43 623 95 662 l 61 512 q 180 582 118 555 q 311 610 243 610 q 418 575 381 610 q 456 482 456 540 q 443 415 456 446 q 402 360 430 385 q 329 317 374 335 q 220 291 284 300 l 174 286 l 174 183 l 203 186 q 246 189 225 189 q 291 189 266 189 q 425 155 378 189 q 472 54 472 121 q 451 -25 472 10 q 393 -89 431 -62 q 300 -131 354 -116 q 179 -147 246 -147 q 100 -142 134 -147 q 33 -131 66 -138 l 55 -250 q 105 -257 78 -257 q 175 -257 133 -257 q 343 -234 266 -257 q 475 -170 420 -211 q 561 -72 530 -129 q 592 52 592 -15 "},"]":{"x_min":43.890625,"x_max":338,"ha":422,"o":"m 338 -106 l 338 704 l 43 704 l 54 615 l 229 615 l 229 -18 l 47 -18 l 47 -106 l 338 -106 "},"m":{"x_min":116,"x_max":896,"ha":1012,"o":"m 896 0 l 896 704 l 698 704 l 506 138 l 317 704 l 116 704 l 116 0 l 221 0 l 221 569 l 438 -3 l 561 -3 l 779 569 l 779 0 l 896 0 "},"9":{"x_min":59,"x_max":678,"ha":746,"o":"m 546 165 q 435 -28 518 49 q 186 -151 351 -107 l 201 -261 q 400 -186 311 -233 q 550 -68 488 -139 q 645 97 612 2 q 678 316 678 192 q 654 490 678 415 q 590 615 631 565 q 491 692 548 666 q 366 718 434 718 q 244 692 301 718 q 147 624 188 667 q 82 520 106 580 q 59 392 59 461 q 132 178 59 252 q 325 104 205 104 q 440 121 386 104 q 546 165 494 138 m 561 274 q 460 226 513 244 q 348 208 408 208 q 221 257 262 208 q 180 398 180 306 q 193 485 180 445 q 231 554 207 526 q 290 599 256 583 q 365 615 324 615 q 509 534 457 615 q 561 309 561 453 l 561 274 "},"l":{"x_min":98,"x_max":500.03125,"ha":548,"o":"m 500 0 l 482 108 l 221 108 l 221 704 l 98 704 l 98 0 l 500 0 "},"8":{"x_min":64,"x_max":696,"ha":760,"o":"m 413 545 q 320 587 357 567 q 259 627 282 606 q 226 672 236 648 q 216 728 216 696 q 226 781 216 755 q 257 827 236 807 q 310 860 278 848 q 383 873 341 873 q 505 833 465 873 q 546 731 546 793 q 510 630 546 678 q 413 545 475 581 m 348 459 q 458 410 415 433 q 528 363 502 387 q 565 311 554 338 q 576 245 576 283 q 523 131 576 177 q 381 85 471 85 q 237 128 291 85 q 184 244 184 172 q 227 368 184 312 q 348 459 270 423 m 247 502 q 115 392 166 456 q 64 244 64 327 q 83 144 64 191 q 143 61 103 97 q 241 3 182 25 q 378 -18 299 -18 q 511 3 452 -18 q 611 61 570 25 q 674 144 652 97 q 696 244 696 191 q 683 334 696 295 q 647 403 671 373 q 589 457 623 433 q 510 503 555 481 q 619 599 576 544 q 663 734 663 655 q 643 828 663 784 q 589 904 624 871 q 502 956 554 937 q 383 976 450 976 q 265 955 318 976 q 176 901 213 935 q 119 822 139 867 q 99 727 99 777 q 138 590 99 641 q 247 502 177 538 "},"p":{"x_min":98,"x_max":569,"ha":603,"o":"m 569 488 q 502 647 569 591 q 322 704 435 704 l 98 704 l 98 0 l 221 0 l 221 269 l 307 269 q 498 323 427 269 q 569 488 569 378 m 449 485 q 411 399 449 425 q 307 373 374 373 l 221 373 l 221 598 l 310 598 q 413 569 377 598 q 449 485 449 541 "},"4":{"x_min":46,"x_max":739,"ha":772,"o":"m 739 0 l 739 104 l 593 104 l 593 715 l 445 715 l 46 91 l 46 0 l 480 0 l 480 -258 l 593 -240 l 593 0 l 739 0 m 480 104 l 172 104 l 480 583 l 480 104 "},"‡":{"x_min":73,"x_max":630,"ha":705,"o":"m 405 848 l 405 958 l 299 958 l 299 848 l 329 661 l 375 661 l 405 848 m 630 554 l 630 659 l 590 659 l 407 629 l 407 583 l 590 554 l 630 554 m 298 583 l 298 629 l 113 659 l 73 659 l 73 554 l 113 554 l 298 583 m 401 319 l 401 387 l 375 553 l 329 553 l 302 387 l 302 319 l 329 154 l 375 154 l 401 319 m 630 47 l 630 152 l 590 152 l 407 122 l 407 76 l 590 47 l 630 47 m 298 76 l 298 122 l 113 152 l 73 152 l 73 47 l 113 47 l 298 76 m 405 -253 l 405 -143 l 375 46 l 329 46 l 299 -143 l 299 -253 l 405 -253 "},"R":{"x_min":113,"x_max":754.5,"ha":776,"o":"m 553 679 q 498 555 553 597 q 350 514 444 514 l 241 514 l 241 843 l 363 843 q 505 800 457 843 q 553 679 553 758 m 475 420 q 624 512 567 447 q 681 685 681 577 q 597 887 681 817 q 369 958 513 958 l 113 958 l 113 0 l 241 0 l 241 404 l 337 404 l 625 -9 l 754 19 l 475 420 "},"o":{"x_min":60,"x_max":723,"ha":783,"o":"m 723 352 q 696 506 723 438 q 624 621 669 574 q 518 693 578 668 q 392 718 458 718 q 265 693 325 718 q 160 620 205 668 q 87 505 114 573 q 60 351 60 437 q 86 197 60 265 q 158 83 113 130 q 264 11 204 36 q 392 -14 325 -14 q 518 11 458 -14 q 624 83 578 36 q 696 199 669 131 q 723 352 723 266 m 597 351 q 584 249 597 297 q 543 166 570 201 q 479 111 517 131 q 392 91 441 91 q 306 112 344 91 q 241 168 268 133 q 199 251 213 204 q 185 352 185 298 q 198 455 185 408 q 239 537 212 502 q 304 591 265 572 q 392 611 343 611 q 476 590 438 611 q 541 535 514 570 q 583 452 569 499 q 597 351 597 405 "},"5":{"x_min":49.078125,"x_max":620,"ha":673,"o":"m 620 94 q 598 198 620 152 q 542 274 577 244 q 458 321 506 305 q 355 337 410 337 q 268 327 307 337 q 199 302 228 317 l 199 591 l 588 591 l 572 704 l 94 704 l 94 211 l 185 195 q 255 220 219 210 q 335 230 291 230 q 450 195 404 230 q 497 82 497 160 q 475 -6 497 35 q 415 -79 454 -47 q 322 -130 377 -111 q 198 -149 266 -149 q 117 -144 153 -149 q 49 -133 81 -140 l 69 -249 q 122 -256 92 -256 q 194 -256 152 -256 q 365 -229 287 -256 q 499 -156 442 -203 q 587 -46 555 -110 q 620 94 620 18 "}}}
